<svg height="803.15" viewBox="0 0 995.75 803.15" width="995.75" xmlns="http://www.w3.org/2000/svg" xmlns:xlink="http://www.w3.org/1999/xlink"><linearGradient id="a" gradientTransform="matrix(-1 0 0 1 -594 0)" gradientUnits="userSpaceOnUse" x1="-1141.48" x2="-1141.48" y1="807.64" y2="111.68"><stop offset="0" stop-color="#808080" stop-opacity=".25"/><stop offset=".54" stop-color="#808080" stop-opacity=".12"/><stop offset="1" stop-color="#808080" stop-opacity=".1"/></linearGradient><g fill="#6c63ff"><ellipse cx="423.67" cy="758.88" opacity=".1" rx="120.02" ry="15.63"/><path d="m109.29 354.82h91.94v125.32h-85.23c-.22 1.3-.44 2.59-.68 3.88h85.9v101.05l-.43-.16c-2.44-1-4.85-2-7.23-3.06l-1.55-.7q-3.66-1.71-7.23-3.63c-.84-.44-1.68-.9-2.51-1.38a150.73 150.73 0 0 1 -36.16-28.14c-.31-.3-.6-.62-.89-.92-1.46-1.59-2.9-3.21-4.3-4.86l-1.55-1.84c-1.64-2-3.24-4.1-4.78-6.2-.23-.31-.45-.62-.68-.92a133.54 133.54 0 0 1 -15.58-28.17c-.13-.3-.24-.63-.36-.93-1.26-3.17-2.39-6.38-3.37-9.66-.41-1.37-.82-2.76-1.16-4.14-.13-.42-.23-.83-.34-1.23-5.09-20.07-5.68-40.93-5.68-61.68 0-2.42 0-4.85 0-7.26 0-8.38.1-16.81.24-25.24q.07-3.27.14-6.55c.13-5.56.3-11.13.54-16.69.06-1.54.13-3.09.21-4.62 0-.89.08-1.78.14-2.67.19-3.21.38-6.42.6-9.6z" opacity=".1" transform="translate(-102.13 -48.43)"/><path d="m201.23 215.28h-50.44a381.75 381.75 0 0 1 26.83-36.92c7.49-9.21 15.37-18.18 23.61-26.82z" opacity=".1" transform="translate(-102.13 -48.43)"/><path d="m201.23 219.16v131.78h-91.66c0-.38.06-.77.1-1.15.08-1 .16-2.08.25-3.11.09-1.21.21-2.44.32-3.66s.25-2.64.38-4 .27-2.64.42-3.95.29-2.63.45-3.93.31-2.63.48-3.94c.14-1.08.28-2.16.43-3.25.21-1.53.43-3.07.66-4.59 0-.23.07-.46.1-.68a313.34 313.34 0 0 1 6.75-33.09 244.5 244.5 0 0 1 11.37-33.52 250.23 250.23 0 0 1 17.1-33z" opacity=".1" transform="translate(-102.13 -48.43)"/><path d="m223.18 354.82v125.33h196.38v-125.33zm0 129.2v107.63c1.12.23 2.23.46 3.34.65 1.5.29 3 .55 4.51.78.29 0 .59.09.89.12.6.1 1.21.18 1.81.26 1.51.21 3 .38 4.55.52l2.16.19 1.75.13c.95.07 1.89.13 2.83.16.58 0 1.16 0 1.75.07h1.38 1.71 2.33 1c.78 0 1.56 0 2.33-.07h.05c.54 0 1.08 0 1.62-.07a3.55 3.55 0 0 0 .46 0c.45 0 .9 0 1.34-.06h.31l3-.24c1-.09 2-.2 3-.31l2.06-.25a180.35 180.35 0 0 0 24.87-5.29c18.32-5.11 36.2-12.26 54.55-17.49 23.67-6.75 49.84-10.07 72.7-1.85v-84.9zm196.38-268.73v-166.85a252.19 252.19 0 0 0 -63.8 7.48c-49.76 12.49-94.38 39.59-132.58 74.2v85.17h9.82v3.87h-9.85v131.84h196.41v-131.84h-146.06v-3.87zm252.29-56.36c-12.3-.44-24.53-4.33-35.6-10.35-21.15-11.5-38.08-29.27-56.93-44.26-39.23-31.23-87.89-50.08-137.79-54.75v165.72h280.32l.69-.74zm25.54-4.57 27.08 29.72v-37.5c-9.11 1.15-17.05 3.82-27.08 7.78zm27.08 464v-134.36h-57.74c-.15-.57-.31-1.15-.49-1.73.17.58.32 1.16.48 1.73h-225.19v97.16c2.14 1.59 4.25 3.26 6.34 5 2.26 1.84 4.49 3.72 6.73 5.6l2.25 1.86c1.08.9 2.17 1.78 3.26 2.67q3.27 2.64 6.59 5.22c1.1.87 2.22 1.72 3.33 2.57a455.14 455.14 0 0 0 55.84 36.52q6.55 3.64 13.22 7.07 4.44 2.28 8.93 4.48 6.74 3.29 13.58 6.37a499.05 499.05 0 0 0 132.33 38.48q15.21 2.24 30.54 3.53v-82.17h.9zm-282.94-399.2v131.84h282.94v-131.84zm0 135.66v125.33h282.94v-125.33zm304.9-208.42v41.92l34.57-37.93q-17.18-2.8-34.57-3.99zm0 208.42v125.33h275.19v-125.33zm274.22 273.5 1-144.3h-275.22v217.98a493.9 493.9 0 0 0 53.18-.64h.31q12.66-.81 25.25-2.32h.19a464.78 464.78 0 0 0 129.74-34.69m119.61-288.94q-1.56-3.66-3.21-7.26c-2-4.49-4.21-8.93-6.44-13.33h-21.47v125.33h54.28c-.05-35.5-9.03-71.74-23.16-104.74zm-31.12 108.59v124.15c15.29-14.65 28.21-31.42 37.51-50.59 11.19-23.09 16.29-48.08 16.73-73.54zm0-165.72v32.72h19.46a353.94 353.94 0 0 0 -19.46-32.7zm-186.59-147.28c-1.43-.55-2.87-1.1-4.31-1.63a391.11 391.11 0 0 0 -46.48-14l-52.89 58-1 1.11.68.74h188.16a402.49 402.49 0 0 0 -84.16-44.22zm89.74 48.17h-196.45l-3.86 3.53v128.3h33.83 241.34v-62.2a391.78 391.78 0 0 0 -74.9-69.64z" opacity=".1" transform="translate(-102.13 -48.43)"/><path d="m201.23 285.63v65.31h-91.66c0-.38.06-.77.1-1.15.08-1 .16-2.08.25-3.11.09-1.21.21-2.44.32-3.66s.25-2.64.38-4 .27-2.64.42-3.95.29-2.63.45-3.93.31-2.63.48-3.94c.14-1.08.28-2.16.43-3.25.21-1.53.43-3.07.66-4.59 0-.23.07-.46.1-.68a313.34 313.34 0 0 1 6.75-33.09z" opacity=".1" transform="translate(-102.13 -48.43)"/><path d="m109.29 354.82h91.94v125.32h-85.23c-.22 1.3-.44 2.59-.68 3.88h85.9v101.05l-.43-.16c-2.44-1-4.85-2-7.23-3.06l-1.55-.7q-3.66-1.71-7.23-3.63c-.84-.44-1.68-.9-2.51-1.38a150.73 150.73 0 0 1 -36.16-28.14c-.31-.3-.6-.62-.89-.92-1.46-1.59-2.9-3.21-4.3-4.86l-1.55-1.84c-1.64-2-3.24-4.1-4.78-6.2-.23-.31-.45-.62-.68-.92a133.54 133.54 0 0 1 -15.58-28.17c-.13-.3-.24-.63-.36-.93-1.26-3.17-2.39-6.38-3.37-9.66-.41-1.37-.82-2.76-1.16-4.14-.13-.42-.23-.83-.34-1.23-5.09-20.07-5.68-40.93-5.68-61.68 0-2.42 0-4.85 0-7.26 0-8.38.1-16.81.24-25.24q.07-3.27.14-6.55c.13-5.56.3-11.13.54-16.69.06-1.54.13-3.09.21-4.62 0-.89.08-1.78.14-2.67.19-3.21.38-6.42.6-9.6z" opacity=".1" transform="translate(-102.13 -48.43)"/><path d="m190.19 189.6v112.92h-69.13v-112.92h9.85v-38.23h40.47v38.23z" opacity=".1"/><path d="m121.06 306.39h69.13v125.33h-69.13z" opacity=".1"/><path d="m223.18 484h69.13v104.23a181.66 181.66 0 0 1 -24.86 5.28l-2.07.26-3 .31-3 .24h-.31c-.44 0-.89.06-1.34.07h-.46c-.55 0-1.09.06-1.63.07h-.05c-.77 0-1.54.06-2.33.07h-1c-.77 0-1.54 0-2.33 0h-1.7c-.47 0-.93 0-1.39 0l-1.75-.07c-.93 0-1.88-.1-2.83-.16l-1.74-.13-2.17-.2c-1.52-.14-3-.31-4.54-.52l-1.81-.25c-.3 0-.6-.08-.89-.13-1.51-.23-3-.48-4.51-.77-1.12-.2-2.23-.43-3.35-.66z" opacity=".1" transform="translate(-102.13 -48.43)"/><path d="m565.34 176.27h57.01v126.25h-57.01z" opacity=".1"/><path d="m622.35 306.39v125.33h-282.94v-54.05h150.71v31.88h75.22v-103.16z" opacity=".1"/><path d="m725.38 618.4h-.9v82.22q-15.33-1.3-30.54-3.53a499.17 499.17 0 0 1 -132.33-38.59q-18.23-8.22-35.73-17.92a457.14 457.14 0 0 1 -55.88-36.53q-6.68-5.1-13.17-10.45c-3-2.48-6-5-9-7.47-2.09-1.69-4.2-3.37-6.35-5v-97.13h225.24l-.47-1.73c.17.58.33 1.15.48 1.73h57.75v134.34z" opacity=".1" transform="translate(-102.13 -48.43)"/><path d="m873.14 215.28h-37.14v-11.54h16.64v-34.38c1.44.53 2.88 1.07 4.31 1.63v32.75h16.18z" opacity=".1" transform="translate(-102.13 -48.43)"/><path d="m962.65 350.94h-182.37l.06.05-.08-.05h-33.83v-126.25h9.57v93.31h43.8v-55.21h36.2v-43.63h37.13v43.63h36.18v55.21h53.33z" opacity=".1" transform="translate(-102.13 -48.43)"/><path d="m746.43 354.82v125.33h216.22v-125.33zm274.89 272.83.3-99.2h-59v-44.45h-216.19v218a493.9 493.9 0 0 0 53.18-.64h.31q12.66-.81 25.25-2.32h.19a464.78 464.78 0 0 0 129.74-34.69" opacity=".1" transform="translate(-102.13 -48.43)"/><path d="m1047.4 484h50.44c-.44 25.45-5.55 50.44-16.74 73.53-9.29 19.18-22.22 36-37.5 50.6v-79.69h3.8z" opacity=".1" transform="translate(-102.13 -48.43)"/><path d="m1097.87 480.14h-50.47v-104.74h27.31c14.13 33.01 23.12 69.25 23.16 104.74z" opacity=".1" transform="translate(-102.13 -48.43)"/><path d="m591.81 211.36h30.54v39.58h-30.54z" opacity=".1"/><path d="m591.81 293.41h30.54v9.11h-30.54z" opacity=".1"/><path d="m591.81 306.39h30.54v26.59h-30.54z" opacity=".1"/><path d="m591.81 375.45h30.54v39.58h-30.54z" opacity=".1"/><path d="m591.81 457.5h30.54v39.58h-30.54z" opacity=".1"/><path d="m724.48 618.34.9.06h-.9v9.19h-30.54v-39.59h30.54z" opacity=".1" transform="translate(-102.13 -48.43)"/><path d="m724.48 670v30.57q-15.33-1.3-30.54-3.53v-27.04z" opacity=".1" transform="translate(-102.13 -48.43)"/><path d="m339.41 428.81h130.88v2.91h-130.88z" opacity=".1"/><path d="m339.41 435.59h130.88v11.14h-130.88z" opacity=".1"/><path d="m339.41 483.26h130.88v17.92h-130.88z" opacity=".1"/><path d="m572.41 586.14v17.91h-102.41q-6.68-5.1-13.17-10.45c-3-2.48-6-5-9-7.46z" opacity=".1" transform="translate(-102.13 -48.43)"/><path d="m572.41 640.57v17.93h-10.8q-18.24-8.22-35.73-17.93z" opacity=".1" transform="translate(-102.13 -48.43)"/><path d="m697.49 318.54h25.76v25.76h-25.76z" opacity=".1"/><path d="m139.62 198.49h25.76v25.76h-25.76z" opacity=".1"/><path d="m139.62 258.33h25.76v25.76h-25.76z" opacity=".1"/><path d="m139.62 318.18h25.76v25.76h-25.76z" opacity=".1"/><path d="m139.62 378.03h25.76v25.76h-25.76z" opacity=".1"/><path d="m139.62 437.88h25.76v25.76h-25.76z" opacity=".1"/><path d="m139.62 497.73h25.76v25.76h-25.76z" opacity=".1"/><path d="m795.85 318.54h25.76v25.76h-25.76z" opacity=".1"/><path d="m697.49 382.09h25.76v25.76h-25.76z" opacity=".1"/><path d="m795.85 382.09h25.76v25.76h-25.76z" opacity=".1"/><path d="m697.49 445.64h25.76v25.76h-25.76z" opacity=".1"/><path d="m795.85 445.64h25.76v25.76h-25.76z" opacity=".1"/><path d="m697.49 509.19h25.76v25.76h-25.76z" opacity=".1"/><path d="m795.85 509.19h25.76v25.76h-25.76z" opacity=".1"/><path d="m697.49 572.74h25.76v25.76h-25.76z" opacity=".1"/><path d="m795.85 572.74h25.76v25.76h-25.76z" opacity=".1"/><path d="m697.49 652.9v-16.61h25.76v14.25z" opacity=".1"/><path d="m113.05 318.72v14.74h88.17v-14.74zm8.78 13.82h-7.23v-12.89h7.23zm8.78 0h-7.23v-12.89h7.23zm8.76 0h-7.23v-12.89h7.23zm8.78 0h-7.23v-12.89h7.23zm8.77 0h-7.23v-12.89h7.23zm8.78 0h-7.23v-12.89h7.23zm8.78 0h-7.23v-12.89h7.23zm8.77 0h-7.25v-12.89h7.23zm8.77 0h-7.23v-12.89h7.21zm8.77 0h-7.23v-12.89h7.23z" opacity=".1" transform="translate(-102.13 -48.43)"/><path d="m113.05 361.63v14.74h88.17v-14.74zm8.78 13.81h-7.23v-12.88h7.23zm8.78 0h-7.23v-12.88h7.23zm8.76 0h-7.23v-12.88h7.23zm8.78 0h-7.23v-12.88h7.23zm8.77 0h-7.23v-12.88h7.23zm8.78 0h-7.23v-12.88h7.23zm8.78 0h-7.23v-12.88h7.23zm8.77 0h-7.25v-12.88h7.23zm8.77 0h-7.23v-12.88h7.21zm8.77 0h-7.23v-12.88h7.23z" opacity=".1" transform="translate(-102.13 -48.43)"/><path d="m113.05 404.54v14.73h88.17v-14.73zm8.78 13.8h-7.23v-12.88h7.23zm8.78 0h-7.23v-12.88h7.23zm8.76 0h-7.23v-12.88h7.23zm8.78 0h-7.23v-12.88h7.23zm8.77 0h-7.23v-12.88h7.23zm8.78 0h-7.23v-12.88h7.23zm8.78 0h-7.23v-12.88h7.23zm8.77 0h-7.25v-12.88h7.23zm8.77 0h-7.23v-12.88h7.21zm8.77 0h-7.23v-12.88h7.23z" opacity=".1" transform="translate(-102.13 -48.43)"/><path d="m113.05 447.44v14.73h88.17v-14.73zm8.78 13.81h-7.23v-12.89h7.23zm8.78 0h-7.23v-12.89h7.23zm8.76 0h-7.23v-12.89h7.23zm8.78 0h-7.23v-12.89h7.23zm8.77 0h-7.23v-12.89h7.23zm8.78 0h-7.23v-12.89h7.23zm8.78 0h-7.23v-12.89h7.23zm8.77 0h-7.25v-12.89h7.23zm8.77 0h-7.23v-12.89h7.21zm8.77 0h-7.23v-12.89h7.23z" opacity=".1" transform="translate(-102.13 -48.43)"/><path d="m113.43 490.34c.35 1.39.75 2.77 1.17 4.14v-3.21h7.23v12.88h-3.83c.11.3.23.62.35.92h82.9v-14.73zm17.18 13.81h-7.23v-12.88h7.23zm8.76 0h-7.23v-12.88h7.23zm8.78 0h-7.23v-12.88h7.23zm8.77 0h-7.23v-12.88h7.23zm8.78 0h-7.23v-12.88h7.23zm8.78 0h-7.23v-12.88h7.23zm8.77 0h-7.25v-12.88h7.23zm8.77 0h-7.23v-12.88h7.21zm8.77 0h-7.23v-12.88h7.23z" opacity=".1" transform="translate(-102.13 -48.43)"/><path d="m133.9 533.25c.23.29.45.61.68.92h4.79v6.19l1.55 1.85v-8h7.23v12.89h-2.93c.29.3.57.62.89.92h55.11v-14.77zm23 13.81h-7.23v-12.89h7.23zm8.78 0h-7.23v-12.89h7.23zm8.78 0h-7.23v-12.89h7.23zm8.77 0h-7.23v-12.89h7.23zm8.77 0h-7.23v-12.89h7.23zm8.77 0h-7.23v-12.89h7.23z" opacity=".1" transform="translate(-102.13 -48.43)"/><path d="m182.27 576.15c.83.47 1.67.93 2.52 1.37v-.45h7.21v4.08l1.54.71v-4.79h7.23v7.84a3.16 3.16 0 0 0 .43.16v-8.92z" opacity=".1" transform="translate(-102.13 -48.43)"/><path d="m724.47 618.34h.9zm-58.23-136c.17.58.32 1.16.48 1.73-.14-.62-.3-1.2-.48-1.78zm-433.24-267.05v3.87h40.5v-3.87zm491.47 403.05h.9zm-58.23-136c.17.58.32 1.16.48 1.73-.14-.62-.3-1.2-.48-1.78zm58.23 136h.9zm-58.23-136c.17.58.32 1.16.48 1.73-.14-.62-.3-1.2-.48-1.78z" opacity=".1" transform="translate(-102.13 -48.43)"/><circle cx="821.17" cy="106.94" opacity=".1" r="21.63"/><circle cx="917.18" cy="159.94" opacity=".1" r="17.01"/><circle cx="964.76" cy="77.97" opacity=".1" r="6"/><ellipse cx="754.03" cy="779.69" opacity=".1" rx="91.67" ry="21"/></g><path d="m903.19 799.67s-64.08 17.21-64.73 17.21c-.36 0-12.51 1-26.24 1.26-11.58.24-24.28 0-32-1.69-16.78-3.71 5.23-15.91 16.35-20.71s66-1.74 72.14-1.74 16.13-7.19 12.65-23.54.87-56.89.87-56.89l14.17-8.06.32 4.47z" fill="#a1a5cf" transform="translate(-102.13 -48.43)"/><path d="m903.19 799.67s-64.08 17.21-64.73 17.21c-.36 0-12.51 1-26.24 1.26 8.36-1.67 19.57-4.18 22.1-6 4.14-3.05 34.22-11.55 34.22-11.55s29.42 1.52 23.75-15.91-2-73-2-73l6.43-1.63z" opacity=".1" transform="translate(-102.13 -48.43)"/><path d="m892.08 711.61s-3.71 55.58 2 73-23.76 15.91-23.76 15.91-30.08 8.5-34.22 11.55c-2.72 2-15.47 4.75-23.92 6.41a17.13 17.13 0 0 0 -13.18 11.75c-1.21 4-.72 7.84 5.07 8.23 12.86.87 12.86 2.62 12.86 2.62s-2.62 9.37 10.9 5 20.05-6.32 20.05-6.32-9.37 10.9-3.7 11.77 26.59-15 26.59-15 13.51-17.22 40.1-18.31-2.4-32.26-2.4-32.26-3.27-43.59-2.39-48.82-1.09-28.77-1.09-28.77z" fill="#a1a5cf" transform="translate(-102.13 -48.43)"/><path d="m889.68 607.64s-33.13 0-44.47-10-32.21-32.72-32.21-32.72-60.16-71.49-77.6-51.87c0 0 .44 9.59 16.13 13.51s16.57 15.7 16.57 15.7-54.06-7-51.88 7.41c0 0 3.49 8.28 24 3.05s25.72.87 25.72.87-.44 7.85-10.9 7.41-19.18 6.1-20.05 11.77 23.1.87 23.1.87 17-2.18 27.46 8.28 25.29 5.24 25.29 5.24 35.31 36.18 77.15 32.69z" fill="#a1a5cf" transform="translate(-102.13 -48.43)"/><g opacity=".1" transform="translate(-102.13 -48.43)"><path d="m765.39 553.38a7.11 7.11 0 0 0 .49-2s-5.23-6.1-25.72-.87c-18.36 4.68-23.06-1.47-23.84-2.8a4.89 4.89 0 0 0 -.14 2.14s3.49 8.29 24 3.06c17.06-4.34 23.53-.82 25.21.47z"/><path d="m751.49 526.78c11.17 2.79 14.83 9.56 16 13.23l.56.07s-.87-11.77-16.57-15.7c-11.25-2.81-14.66-8.54-15.69-11.55-.14.14-.3.28-.44.44.01 0 .45 9.59 16.14 13.51z"/><path d="m887.93 617.67c-41.84 3.49-77.15-32.67-77.15-32.67s-14.82 5.23-25.29-5.23-27.49-8.31-27.49-8.31-20.07 4-22.81.35a7.51 7.51 0 0 0 -.29 1.18c-.87 5.67 23.1.87 23.1.87s17-2.18 27.46 8.28 25.29 5.23 25.29 5.23 35.31 36.19 77.15 32.7l1.75-12.21h-.34z"/></g><path d="m927.39 643.54a111.12 111.12 0 0 1 -2.39 37.81c-.18.76-.36 1.55-.54 2.36a160.45 160.45 0 0 0 -3.41 22.45c-.68 9.5-11.09 11.26-21 10.74a94.17 94.17 0 0 1 -17.78-2.9c-15.7-53.18-3.93-50.57 2.18-87.19 4.51-27-2.87-50.75-7-61.29-1.48-3.74-2.55-5.84-2.55-5.84s25.28-23.54 20.92-13.51c-1 2.22-.82 5.87.11 10.44 3.25 16 16.16 43.45 24.3 59.74 4.04 8.16 6.13 18.1 7.16 27.19z" fill="#a1a5cf" transform="translate(-102.13 -48.43)"/><path d="m884 713.79c-15.69-53.18-3.92-50.57 2.18-87.18 4.51-27-2.87-50.75-7-61.3-1.48-3.74-2.55-5.83-2.55-5.83s14.37-13.42 19.58-15.68c-1.38-2.9-21.33 15.68-21.33 15.68s1.07 2.09 2.55 5.83c4.17 10.55 11.54 34.26 7 61.3-6.11 36.61-17.88 34-2.18 87.18z" opacity=".1" transform="translate(-102.13 -48.43)"/><path d="m895.89 556.62c-6 3.8-10.34 6.65-11 7.43-1 1.23-4.14 1.54-7.47 1.48-1.48-3.74-2.55-5.84-2.55-5.84s25.28-23.54 20.92-13.51c-.98 2.22-.79 5.87.1 10.44z" opacity=".1" transform="translate(-102.13 -48.43)"/><path d="m867 562.74s15.26 2.62 17.87-.43 59.29-37 64.08-37.49 11.77-16.13 11.77-16.13 49-83.77-11-125.33a90.15 90.15 0 0 0 -87.35-8.36c-26.25 11.52-53.76 37.74-51.37 97.2a63.45 63.45 0 0 0 5.83 23.81c2.34 5.12 4.63 10.9 4.41 13.51-.44 5.27 45.76 53.22 45.76 53.22z" fill="#a1a5cf" transform="translate(-102.13 -48.43)"/><path d="m898.83 610.7 6.11 62.77s-13.52 38.36-4.36 57.54 11.33 32.26 17 29.64-5.23-29.65-5.23-29.65 23.1 29.21 30.51 26.15 3-14.82-10-25.72 2.18-8.28 2.18-8.28 30.08 11.77 27 .44-32.26-16.59-32.26-16.59-8.72-27.46-12.2-33.56-5.67-54.06-8.29-58.85-10.46-3.89-10.46-3.89z" opacity=".1" transform="translate(-102.13 -48.43)"/><path d="m923.6 683.71a160.45 160.45 0 0 0 -3.41 22.45c-.68 9.5-11.1 11.26-21 10.74-1-19.51 7.46-43.43 7.46-43.43l-6.1-62.77s7.84-.88 10.46 3.92 4.79 52.74 8.28 58.85a83.74 83.74 0 0 1 4.31 10.24z" opacity=".1" transform="translate(-102.13 -48.43)"/><path d="m899.7 610.7 6.11 62.77s-13.52 38.36-4.36 57.54 11.33 32.26 17 29.64-5.23-29.65-5.23-29.65 23.1 29.21 30.51 26.15 3-14.82-10-25.72 2.18-8.28 2.18-8.28 30.07 11.77 27 .44-32.26-16.59-32.26-16.59-8.71-27.46-12.2-33.56-5.67-54.06-8.28-58.85-10.47-3.89-10.47-3.89z" fill="#a1a5cf" transform="translate(-102.13 -48.43)"/><path d="m775.69 552.21a11.39 11.39 0 0 1 -4.68 5.35" opacity=".1" transform="translate(-102.13 -48.43)"/><path d="m919.36 708.17a33.56 33.56 0 0 0 9 11.93" opacity=".1" transform="translate(-102.13 -48.43)"/><path d="m909.12 719.46a18.5 18.5 0 0 0 1.24 5.38 6.27 6.27 0 0 0 3.93 3.64" opacity=".1" transform="translate(-102.13 -48.43)"/><path d="m897.07 442.64s5.83-9.82 8.9-9.82" opacity=".2" transform="translate(-102.13 -48.43)"/><path d="m898.61 448.16s18.09-20.55 22.39-20.55" opacity=".2" transform="translate(-102.13 -48.43)"/><path d="m864.56 423.93s4.91.31 5.83 4.6" opacity=".2" transform="translate(-102.13 -48.43)"/><path d="m855.66 422.09s11.05 9.51 11.35 13.49" opacity=".2" transform="translate(-102.13 -48.43)"/><path d="m883.88 470.86s2.76 4 5.83 5.21" opacity=".2" transform="translate(-102.13 -48.43)"/><path d="m886 461.35s5.21 11.35 8.28 11.35" opacity=".2" transform="translate(-102.13 -48.43)"/><path d="m899.53 502.45s11.65 16.87 25.76 15" opacity=".2" transform="translate(-102.13 -48.43)"/><path d="m874.37 500s-9.2 9.51-17.48 9.51" opacity=".2" transform="translate(-102.13 -48.43)"/><path d="m948.68 412.18s19.23 7.82 18.61 13.82" opacity=".2" transform="translate(-102.13 -48.43)"/><path d="m957.16 408.87s12.61 9.52 14.47 14.07" opacity=".2" transform="translate(-102.13 -48.43)"/><path d="m821.09 420s18.41-2.89 20.68-.83" opacity=".2" transform="translate(-102.13 -48.43)"/><path d="m823.78 410.94s15.51-1.24 18.61 1" opacity=".2" transform="translate(-102.13 -48.43)"/><path d="m870.5 563.62s-46.21-48-45.77-53.19c.21-2.61-2.07-8.39-4.42-13.51a63.43 63.43 0 0 1 -5.82-23.81c-2.39-59.46 25.11-85.68 51.37-97.2a90.22 90.22 0 0 1 45.66-7.08 90.32 90.32 0 0 0 -49.15 6.64c-26.25 11.53-53.76 37.74-51.37 97.21a63.35 63.35 0 0 0 5.83 23.8c2.34 5.13 4.63 10.9 4.41 13.52-.44 5.23 45.77 53.18 45.77 53.18s2.17.37 5 .67c-.93-.13-1.51-.23-1.51-.23z" opacity=".1" transform="translate(-102.13 -48.43)"/><path d="m762 504v-32.43h4.42v-9.7h-31.68v9.7h4.41v32.43a32.2 32.2 0 1 0 22.85 0z" fill="#96b7fe" opacity=".9" transform="translate(-102.13 -48.43)"/><path d="m637.03 423.04h22.85v.44h-22.85z" opacity=".1"/><path d="m732.57 533.28s19.39-.34 29.09-5.19 15.23-.52 14.71 2.42-3.29 8.66-14.37 9.35-29.43-6.58-29.43-6.58z" fill="#6c63ff" transform="translate(-102.13 -48.43)"/><path d="m732.57 533.28s19.39-.34 29.09-5.19 15.23-.52 14.71 2.42-3.29 8.66-14.37 9.35-29.43-6.58-29.43-6.58z" opacity=".1" transform="translate(-102.13 -48.43)"/><path d="m724.27 530.17s-2.08 28.73 25.1 29.25 27-28.91 27-28.91-10 10.91-33.76 1.91c0 0-12.29-3.29-18.34-2.25z" fill="#6c63ff" transform="translate(-102.13 -48.43)"/><path d="m776.27 530.61c-.54 6.62-4.06 27.34-26.9 26.9-22.39-.42-24.92-20-25.12-26.88-.13 3.69 0 28.31 25.12 28.79 27.18.52 27-28.91 27-28.91z" opacity=".1" transform="translate(-102.13 -48.43)"/><circle cx="647.4" cy="469.34" fill="#6c63ff" opacity=".3" r="3.53"/><circle cx="649.42" cy="455.24" fill="#6c63ff" opacity=".3" r="2.18"/><circle cx="644.55" cy="442.65" fill="#6c63ff" opacity=".3" r="2.18"/><path d="m728 520.49c-.18 1.48-.15 3.34 1.18 4-1.18-.49 3.42-7.14 2.82-8.49-1.43-2.87-3.85 3.11-4 4.49z" fill="#fff" opacity=".2" transform="translate(-102.13 -48.43)"/><circle cx="642.78" cy="403.44" fill="#6c63ff" opacity=".3" r="3.53"/><circle cx="653.36" cy="397.4" fill="#6c63ff" opacity=".3" r="2.62"/><circle cx="645.81" cy="390.34" fill="#6c63ff" opacity=".3" r="1.36"/><path d="m405.31 584.51c9.63 4.7 21.46 6.87 33.52 7.57-.07.47-.15.93-.23 1.38a41.3 41.3 0 0 1 -3.5 10.9h.72c-16.29 24.54-2.75 76.38-2.75 76.38s3.54 19.35 9.6 40.68c3.36 11.81 1.52 18.45-.77 22v.07c-.15.23-.29.47-.44.71v-.35c-13.89 16.37-4.55 24.68-4.55 24.68l7.74 9.69-.67 16.86 5.05 1-1.19-13.86 4.73 5.92 1 13.89s23.22 2.24 38.63 5 17.67-4.71 10.85-6.94-13.63-15.88-13.63-15.88a16.45 16.45 0 0 0 -4-.87q-.19-.39-.39-.81c-5.1-10.74-12.03-30.53-12.03-30.53v-.17c-.73-8.19-1.89-16.35-3.18-24.48-2.32-14.62 1.93-50.52 1.93-50.52s1.52-43.66 4.8-53.59a80.82 80.82 0 0 0 2.95-15.46c.09-.76.16-1.51.23-2.23 26.25.2 57-.51 71.05-4.39a99.07 99.07 0 0 1 12.3-2.51c-.12.72-.26 1.48-.41 2.29a172 172 0 0 1 -4.82 18.83c-6.06 19.35-3.54 51.85 4.79 75.17 6.09 17 4.37 40 3 51.16-.05.46-.11.91-.17 1.33l-.16-.14a9.32 9.32 0 0 1 -3.06 6.79 15.66 15.66 0 0 0 -5.59 14.52 19.62 19.62 0 0 0 8.52 12.92v21.83h4.8v-21.61c15.65-3.72 34.33 24.81 34.33 24.81s26.77 1.24 47.72.74 6.82-9.67 6.82-9.67c-23.54.74-34.15-12.62-34.15-12.62l-.28 1.93-.19-.17c-8.81-8.26-20-28.81-20-28.81s-.76-10.42-3.53-15.38-1.7-57.09-1.7-57.09l-.22-84.94v-2.24c5 .39 8.56.65 9.83.1 4-1.73.75-28.78-2.78-35.48-2.21-4.18-10.61-32.12-16.61-52.55a57.09 57.09 0 0 0 5.24 6.9c-3.8-5-24.48-104.43-24.48-104.43l-.71-13a70.93 70.93 0 0 0 8-13.58c8.16-.92 28.5-4.48 39.63-17.56 2.58-3 3.13-5.19 2.3-6.67l62.58-12.92 12.12-10.18-37.47 6.92c7.4-13.85-1.67-18.88-10.53-20.66l2.12-6.58a3.08 3.08 0 0 0 -.44-2.77l-.07-.08-.14-.18a3 3 0 0 0 -.25-.25l-.17-.15a3.62 3.62 0 0 0 -.32-.22l-.17-.1a4.56 4.56 0 0 0 -.55-.24 3.25 3.25 0 0 0 -4.06 2.07l-2.47 7.66-1.06-.06-46-2s-7.32-10.91-10.1-7.69-6.82-.49-6.82-.49 0-23.32-6.06-22.33a7.66 7.66 0 0 1 -6.17-1.68l-.14-2.54s-1-11.91-2-22.08c-.92-9.29-18-21.67-21-23.76l-19.45-27.17a1.4 1.4 0 0 0 -.1.16l-.65-.91.09-.57c.09-.47.16-.93.25-1.4a38.24 38.24 0 0 0 11.49 1.76c20.71 0 37.49-16.49 37.49-36.84a36.09 36.09 0 0 0 -2.69-13.73c-.07-.18-.15-.35-.22-.53a10.73 10.73 0 0 0 6.14-.62 4.52 4.52 0 0 0 1.21-.79c5.21-4.94-6.91-17.21-9.1-21.61-1.81-3.62-2.71-7.67-4.87-11.09a19.83 19.83 0 0 0 -4.16-4.65c.12.18.25.36.37.55s.08.15.13.22a31.4 31.4 0 0 0 -11-6.08c-14.86-5-46.26-12.34-55.63.06-1.85 2.44-3.38 5.25-5.94 7-1.94 1.31-4.3 1.86-6.43 2.85-6 2.76-9.8 8.77-11.85 15s-2.64 12.72-4.13 19c-1.9 8.11-5.26 15.8-8.59 23.45-3.94 9-8.12 18.37-15.7 24.75-10.35 8.71-12.69 21-22.25 30.55-11.39 11.34-11 30-5.15 44.89.77 2 1.64 4 1.34 6.06s-1.87 4-3.36 5.61l-6.22 6.9a34.7 34.7 0 0 0 23.42-3 37.47 37.47 0 0 0 4.29-2.5l-.06 1.73c-.47 15-.19 26.75-.19 26.75 7.83 12.65-12.62 114.37-12.62 114.37-4.78 19.57-10.58 142.62-10.58 142.62zm166.07-228.09c-.8-.05-1.63-.09-2.48-.12v-.24zm21.39 2.49-1.85 1.85c-3.91.64-6.61 1.22-6.61 1.22l-3.87.87c-.49-2.53-1.21-4.38-1.94-5.09a2.83 2.83 0 0 0 -1.12-.54c5.03.63 10.3 1.19 15.39 1.69z" fill="url(#a)" transform="translate(-102.13 -48.43)"/><path d="m347.42 730.04 1.48 17.55-4.94-.99.74-19.03z" fill="#1d2366"/><path d="m562.28 695.15c6 17 4.27 39.86 2.93 51-.5 4.11-1 6.62-1 6.62s8.9 20.28 9.64 21 26.21 16.32 26.21 16.32l17.8 10.38s18.05-7.91 9.39-10.63a13 13 0 0 1 -4.66-3.19c-8.63-8.23-19.57-28.71-19.57-28.71s-.74-10.38-3.45-15.32-1.74-56.87-1.74-56.87l-.21-84.65v-11l-33.88.25a77.49 77.49 0 0 1 -1.46 11.15 170.82 170.82 0 0 1 -4.72 18.77c-5.91 19.25-3.44 51.64 4.72 74.88z" fill="#ffb0b1" transform="translate(-102.13 -48.43)"/><path d="m564.26 752.75s8.9 20.28 9.64 21 26.21 16.32 26.21 16.32l17.8 10.38s18.05-7.91 9.39-10.63a13 13 0 0 1 -4.66-3.19l-.77 5.41-5.94-.24-50.72-45.69c-.5 4.13-.95 6.64-.95 6.64z" opacity=".1" transform="translate(-102.13 -48.43)"/><path d="m564.88 747.31 51 46 5.93.25 1.24-8.66s10.38 13.35 33.38 12.61c0 0 13.84 9.15-6.68 9.64s-46.72-.74-46.72-.74-18.3-28.43-33.63-24.72v21.51h-4.7v-21.77a19.55 19.55 0 0 1 -8.34-12.88 15.79 15.79 0 0 1 5.47-14.47 9.35 9.35 0 0 0 3.05-6.77z" fill="#1d2366" transform="translate(-102.13 -48.43)"/><path d="m444.85 721.6c3.28 11.76 1.49 18.39-.76 21.95a.25.25 0 0 0 0 .07 40.61 40.61 0 0 0 -5.92 14.45l-.2 1.11 23.23 33.87 12.57 4.95s20.27-6.92 16.56-8.9c-.92-.49-2.37-3.05-4-6.61-5-10.71-11.8-30.47-11.8-30.47v-.16c-.71-8.17-1.85-16.3-3.12-24.4-2.27-14.57 1.9-50.35 1.9-50.35s1.48-43.51 4.7-53.41a82.58 82.58 0 0 0 2.88-15.4c.68-6.22.83-11.3.83-11.3s-13.35-18.54-37.83 1.49a27.27 27.27 0 0 0 -5.11 5.55c-16.9 24.05-3.3 77-3.3 77s3.43 19.3 9.37 40.56z" fill="#ffb0b1" transform="translate(-102.13 -48.43)"/><path d="m437.93 759.18 23.23 33.87 12.61 4.95s20.27-6.92 16.56-8.9c-.92-.49-2.37-3.05-4-6.61-8.59-.08-13 8.1-13 8.1l-10.88-1.73s-14.34-28.19-17.55-29.91-.5-12.87-.5-12.87v-2.84l-.26.32a.25.25 0 0 0 0 .07 40.61 40.61 0 0 0 -5.92 14.45z" opacity=".1" transform="translate(-102.13 -48.43)"/><path d="m472.54 791.32s6.18-11.37 18-7.17c0 0 6.68 13.6 13.35 15.82s4.46 9.65-10.63 6.93-37.78-4.9-37.78-4.9l-1-13.84-15.33-19.53s-9.15-8.29 4.45-24.6v2.84s-2.72 11.12.49 12.86 17.56 29.91 17.56 29.91z" fill="#1d2366" transform="translate(-102.13 -48.43)"/><path d="m563.76 590.32a77.49 77.49 0 0 1 -1.46 11.15c14-2.05 26.88-1 35.37-.37v-11z" opacity=".1" transform="translate(-102.13 -48.43)"/><path d="m437.43 607.13s19.83 1 43.43 1.16c.68-6.22.83-11.3.83-11.3s-13.35-18.54-37.83 1.49a27.27 27.27 0 0 0 -5.11 5.55 30.85 30.85 0 0 1 -1.32 3.1z" opacity=".1" transform="translate(-102.13 -48.43)"/><path d="m437.43 604.91s86.78 4.2 113.23-3.21 52.66-1 56.62-2.73.74-28.68-2.72-35.35-22.5-74.17-22.5-74.17l-18.3-95.45-19.28-5.32-1.36-.38-33.6-9.27-24.62-6.79s-48.9 191.13-44.75 205.22a36.05 36.05 0 0 1 .71 16.59 41.7 41.7 0 0 1 -3.43 10.86z" fill="#1d2366" transform="translate(-102.13 -48.43)"/><path d="m627.55 328.75s17.31 18.54 4.2 28.93-21.75 1-21.75 1z" fill="#c7daf5" transform="translate(-102.13 -48.43)"/><path d="m627.55 328.75s17.31 18.54 4.2 28.93-21.75 1-21.75 1z" opacity=".1" transform="translate(-102.13 -48.43)"/><path d="m487.49 206.62s2 1.92 5.09 4.78c4.36 4.07 10.81 10 16.53 15 7.93 6.9 14.46 12 12.13 7.64s-1.9-11.85-.73-18.9c.08-.47.15-.93.24-1.4a130.19 130.19 0 0 1 3.83-15.3s-12.8-16.55-19.89-23.08c-2.64-2.44-4.48-3.48-4.59-1.77-.13 2.31-1.87 7.38-4 12.86l-.2.51c-1.45 3.68-3.06 7.52-4.49 10.82-2.19 5.07-3.92 8.84-3.92 8.84z" fill="#ffb0b1" transform="translate(-102.13 -48.43)"/><path d="m495.89 187a36.75 36.75 0 0 0 24.62 28.18 127.08 127.08 0 0 1 4.07-16.7s-24.11-31.15-24.48-24.85c-.1 2.37-1.98 7.67-4.21 13.37z" opacity=".1" transform="translate(-102.13 -48.43)"/><path d="m522.91 223.49-3.12-4.39s-2.07 12.61-9.67 7.05-8 41.84-8 41.84l8.16 122 59-3.52-1.67-59-6.68-29.66-16.5-43.21-9.83-14.28z" opacity=".1" transform="translate(-102.13 -48.43)"/><path d="m502.14 268.73 7.38 110.32.78 11.69 32.88-2 1.3-.08 24.79-1.48-1.67-59-6.68-29.66-16.5-43.21-9.83-14.27-11.68-16.88-3.12-4.39s-2.07 12.61-9.67 7l-.16-.11c-7.45-4.66-7.82 42.07-7.82 42.07z" fill="#1d2366" transform="translate(-102.13 -48.43)"/><path d="m560.06 288.2s3 6.18 8.9 5.19 5.93 22.26 5.93 22.26 4 3.7 6.68.49 9.89 7.66 9.89 7.66l45 2s-20 9.15-16.07 36.84c0 0-68-4.2-70.21-10.63s9.88-63.81 9.88-63.81z" fill="#fff" transform="translate(-102.13 -48.43)"/><path d="m560.06 288.2s3 6.18 8.9 5.19 5.93 22.26 5.93 22.26 4 3.7 6.68.49 9.89 7.66 9.89 7.66l45 2s-20 9.15-16.07 36.84c0 0-68-4.2-70.21-10.63s9.88-63.81 9.88-63.81z" opacity=".03" transform="translate(-102.13 -48.43)"/><path d="m588.72 291.94-11.87 10.14-97.66 20.52 12.12-12.36z" fill="#fff"/><path d="m522.72 227.38c1.62 2.43 6.26 15.16 10.14 26.23 3.23 9.23 5.94 17.29 5.94 17.29s6.3 41 9.51 48.45 1.49 36.35 1.49 36.35l12 71.45s5.43 36.85 13.83 58.85c8.28 21.66 17.5 31.82 17.79 32.13-3.71-5-24-104.07-24-104.07l-6.67-124.86s-1-11.87-2-22-21-24-21-24l-19.34-27.51c-1.95 2.71-.65 7.24 2.31 11.69z" fill="#fff" transform="translate(-102.13 -48.43)"/><path d="m573.16 387.84s28.43-1.24 42.28-17.8-31.9-6.68-31.9-6.68l-11.86 2.72z" fill="#ffb0b1" transform="translate(-102.13 -48.43)"/><path d="m440.15 577.46a36.05 36.05 0 0 1 .71 16.59c31.07 2.21 64.31-6.2 64.31-6.2 6.18 5.69 22.5 14.09 22.5 14.09l8.9-110.27c5.68-14.83 7.91-92.71 7.91-92.71s-.51-4.08-1.3-10.18c0-.15 0-.31-.06-.46-2.22-17.05-6.61-49.07-8.77-53.39-3-5.93 9.14-21.75 9.14-21.75l-5.51-47-.67-5.66c-11.62-5.2-20.52-21.77-20.52-21.77l-6.83-12c-7.44-4.77-7.81 42-7.81 42l7.38 110.32-24.62-6.79s-48.91 191.09-44.76 205.18z" opacity=".1" transform="translate(-102.13 -48.43)"/><path d="m408.26 585.13c33.86 16.81 95.43 1.24 95.43 1.24 6.18 5.68 22.5 14.09 22.5 14.09l8.9-110.27c5.68-14.83 7.91-92.71 7.91-92.71s-7.17-58.1-10.14-64c-.86-1.73-.44-4.31.58-7.08a89.68 89.68 0 0 0 5.43-41.48l-2.37-20.22-.67-5.67c-11.62-5.19-20.52-21.76-20.52-21.76l-6.2-10.85-11.4-20-5.4-9.46-.91.83-7 6.35s-3 2.44-7.42 6.21c-9.7 8.18-26.46 22.56-35.1 31.36-7.6 7.76-10 37.91-10.7 60.61-.46 14.96-.18 26.68-.18 26.68 7.67 12.61-12.36 114-12.36 114-4.7 19.5-10.38 142.13-10.38 142.13z" fill="#fff" transform="translate(-102.13 -48.43)"/><path d="m473.28 237s23.24 44.25 20.52 61.06-10.39 35.85-6.68 40.3a13.68 13.68 0 0 0 10.88 5.47c3.71.25 13.6 7.17 13.6 7.91s9.15.74 17.31 4.2 20.27 5.44 20.27 5.44 23.49-.74 25.71 1.49 4.45 15.57-.25 26.2-9.89 18.55-13.84 20-28.93-6.92-49.2-8.9-42.28-18.05-42.28-18.05-24.23-8.65-28.43-23.24 5.19-94.69 5.19-94.69 7.17-37.3 27.2-27.19z" opacity=".03" transform="translate(-102.13 -48.43)"/><path d="m476.24 233.32s23.24 44.25 20.53 61.06-10.39 35.85-6.68 40.3a13.68 13.68 0 0 0 10.91 5.44c3.71.25 13.6 7.17 13.6 7.91s9.14.74 17.3 4.21 20.28 5.44 20.28 5.44 23.48-.75 25.71 1.48 4.45 15.57-.25 26.21-9.89 18.54-13.84 20-28.93-6.92-49.2-8.9-42.28-18.05-42.28-18.05-24.23-8.65-28.43-23.24 5.19-94.69 5.19-94.69 7.14-37.31 27.16-27.17z" opacity=".03" transform="translate(-102.13 -48.43)"/><path d="m474 234.8s23.24 44.26 20.52 61.07-10.38 35.85-6.68 40.3a13.68 13.68 0 0 0 10.88 5.44c3.71.24 13.6 7.16 13.6 7.91s9.15.74 17.31 4.2 20.27 5.44 20.27 5.44 23.49-.74 25.71 1.48 4.45 15.58-.24 26.21-9.89 18.54-13.85 20-28.93-6.92-49.2-8.9-42.28-18-42.28-18-24.22-8.66-28.43-23.24 5.21-94.71 5.21-94.71 7.18-37.34 27.18-27.2z" fill="#fff" transform="translate(-102.13 -48.43)"/><path d="m474.51 353.47s18.55-3.71 12.12 2.47-6.43 11.62-14.34 11.38 2.22-13.85 2.22-13.85z" opacity=".1" transform="translate(-102.13 -48.43)"/><path d="m443.12 486.73s8.4 5.69-7.67 18.79 7.67-18.79 7.67-18.79z" opacity=".1" transform="translate(-102.13 -48.43)"/><path d="m459.19 533.46c0 .74 3 27.19-8.16 33.87s8.16-33.87 8.16-33.87z" opacity=".1" transform="translate(-102.13 -48.43)"/><path d="m635.71 325.76c9 .3 28.34 3 18.29 21.78-8.88 16.58-23.8 5.5-32.16-2.91a31.68 31.68 0 0 1 13.87-18.87z" fill="#ffb0b1" transform="translate(-102.13 -48.43)"/><path d="m621.69 344.48-.37-.38z" fill="#ffb0b1" transform="translate(-102.13 -48.43)"/><path d="m477 211.1c9.51 6.5 17.49 12 19 13.13 4.27 3.15 12.43 21.7 17.62 31.15 4.18 7.62 17.74 9.58 22.86 10.06l-.67-5.67c-11.6-5.19-20.5-21.77-20.5-21.77l-23-40.29-7.91 7.17s-2.97 2.46-7.4 6.22z" opacity=".1" transform="translate(-102.13 -48.43)"/><path d="m477 210.36c9.51 6.5 17.49 12 19 13.13 4.27 3.15 12.43 21.69 17.62 31.15 4.18 7.62 17.74 9.58 22.86 10.06l-.67-5.67c-11.62-5.19-20.52-21.76-20.52-21.76l-23-40.3-7.91 7.18s-2.95 2.44-7.38 6.21z" fill="#dce7ff" transform="translate(-102.13 -48.43)"/><path d="m495.28 178.8a36.72 36.72 0 1 0 36.72-36.71 36.56 36.56 0 0 0 -36.72 36.71z" fill="#ffb0b1" transform="translate(-102.13 -48.43)"/><path d="m431.18 302.33a32.54 32.54 0 0 0 11.82-12.73c2.07-4.09 3.44-8.8 7-11.71 3.17-2.59 7.46-3.22 11.39-4.39 13-3.85 23.94-15.74 24.36-29.32.19-6.38-1.8-12.76-.9-19.08a21.12 21.12 0 0 1 4.15-9.85 33.3 33.3 0 0 1 3.57-3.85c1.74-1.64 3.55-3.22 5.13-5a19.35 19.35 0 0 0 2.62-3.53 17.3 17.3 0 0 0 1.42-3.29c2.42-7.57.22-16.56 2.94-24.23l.15-.42c1-2.72 3.12-5.44 6-5.66s5.41 2.2 8.19 3.29c5.8 2.25 12.07-1.58 16.91-5.5s10.31-8.39 16.46-7.51c4.07.58 7.29 3.35 11 4.79a17.1 17.1 0 0 0 2.62.75 36.72 36.72 0 0 0 -70 21.35l-.2.51c-1.45 3.68-3.06 7.52-4.49 10.82l-7 6.35s-3 2.44-7.42 6.21c-9.7 8.18-26.46 22.56-35.1 31.36-7.52 7.79-9.92 37.94-10.62 60.64z" opacity=".1" transform="translate(-102.13 -48.43)"/><path d="m563.9 141.78c-1.77-3.61-2.65-7.64-4.77-11.06-3.11-5-8.54-8.13-14.1-10-14.55-5-45.3-12.3-54.48.06-1.81 2.44-3.3 5.23-5.81 6.94-1.9 1.31-4.21 1.86-6.3 2.84-5.86 2.75-9.6 8.74-11.6 14.9s-2.58 12.67-4 19c-1.87 8.08-5.15 15.75-8.42 23.37-3.85 9-7.94 18.31-15.37 24.67-10.14 8.68-12.42 20.94-21.79 30.44-11.15 11.31-10.79 29.94-5 44.73.75 1.95 1.61 4 1.31 6s-1.83 4-3.29 5.59l-6.09 6.88c14.41 3.48 30.73-4.05 37.43-17.27 2.08-4.08 3.44-8.79 7-11.7 3.17-2.6 7.45-3.22 11.39-4.39 13-3.85 23.94-15.75 24.35-29.32.2-6.38-1.79-12.76-.89-19.08a21.21 21.21 0 0 1 4.14-9.85c3.41-4.44 8.56-7.48 11.32-12.35 4.7-8.28 1.13-19 4.52-27.94 1-2.72 3.12-5.45 6-5.66s5.41 2.21 8.18 3.29c5.8 2.25 12.08-1.58 16.91-5.5s10.31-8.39 16.47-7.51c4.07.58 7.29 3.35 11 4.79 2.78 1.07 8.41 2 10.84-.32 5.06-4.94-6.85-17.17-8.95-21.55z" fill="#591d4b" transform="translate(-102.13 -48.43)"/><path d="m438.08 284.65c2.07-4.09 3.44-8.79 7-11.7 3.17-2.6 7.45-3.22 11.39-4.39 13-3.85 23.94-15.75 24.35-29.32.2-6.38-1.8-12.77-.89-19.08a21.06 21.06 0 0 1 4.14-9.85c3.41-4.45 8.56-7.48 11.32-12.36 4.7-8.27 1.13-19 4.51-27.93 1-2.73 3.13-5.45 6-5.66s5.41 2.2 8.18 3.28c5.8 2.26 12.07-1.57 16.91-5.49s10.31-8.39 16.47-7.52c4.07.58 7.29 3.35 11 4.8 2.78 1.06 8.4 2 10.84-.32 5.1-4.92-6.77-17.15-8.91-21.53-1.77-3.62-2.65-7.65-4.77-11.06-.12-.19-.25-.37-.37-.55a19.62 19.62 0 0 1 4.08 4.63c2.11 3.41 3 7.44 4.76 11.06 2.15 4.38 14 16.61 8.91 21.53-2.43 2.34-8 1.38-10.83.31-3.75-1.44-7-4.21-11-4.79-6.16-.87-11.64 3.6-16.47 7.52s-11.11 7.75-16.91 5.49c-2.78-1.08-5.21-3.5-8.18-3.29s-5 2.94-6 5.67c-3.38 8.89.18 19.66-4.51 27.93-2.77 4.88-7.91 7.91-11.32 12.36a21.18 21.18 0 0 0 -4.15 9.85c-.9 6.31 1.1 12.7.9 19.08-.42 13.57-11.33 25.47-24.35 29.32-3.94 1.16-8.22 1.79-11.39 4.39-3.55 2.91-4.92 7.61-7 11.7-6.71 13.22-23 20.74-37.43 17.26l2.87-3.24c12.51.25 25.15-6.87 30.85-18.1z" opacity=".1" transform="translate(-102.13 -48.43)"/><path d="m523.47 228.13c1.61 2.42 6.26 15.16 10.14 26.22 3.62-1.4 6.92-10.4 6.92-10.4l-19.35-27.52c-1.98 2.72-.68 7.25 2.29 11.7z" opacity=".1" transform="translate(-102.13 -48.43)"/><path d="m522.72 227.38c1.62 2.43 6.26 15.16 10.14 26.23 3.63-1.4 6.92-10.41 6.92-10.41l-19.34-27.51c-1.98 2.71-.68 7.24 2.28 11.69z" fill="#dce7ff" transform="translate(-102.13 -48.43)"/><path d="m635.19 353.9 10.73-33.78a3.18 3.18 0 0 0 -2.06-4 3.16 3.16 0 0 0 -4 2.06l-10.69 33.82 1.07 7.07z" fill="#be8b87" transform="translate(-102.13 -48.43)"/><path d="m644.91 317.11a3.16 3.16 0 0 0 -4 2.05l-10.73 33.78.81 5.31-.78.81-1.04-7.06 10.72-33.78a3.16 3.16 0 0 1 4-2.06 3.16 3.16 0 0 1 1.64 1.21 2.83 2.83 0 0 0 -.62-.26z" fill="#fff" opacity=".1" transform="translate(-102.13 -48.43)"/><path d="m533.07 305.47-6.03-1.91.88 5.8.19 1.27 1.76-1.83z" fill="#efc8c4"/><path d="m632 357.22a1.48 1.48 0 0 0 -.39-.32.55.55 0 0 0 -.58 0 1.85 1.85 0 0 0 -.21.33 1.05 1.05 0 0 1 -.77.52l.19 1.27z" fill="#727a9c" transform="translate(-102.13 -48.43)"/><path d="m646 332.09s-21.51-.13-16.44 9 13 10.26 13 10.26z" fill="#ffb0b1" transform="translate(-102.13 -48.43)"/><path d="m195.57 681.41s7.13 9.33-3.29 23.41-19 26-15.56 34.76c0 0 15.74-26.16 28.54-26.52s4.4-15.92-9.69-31.65z" fill="#6c63ff" transform="translate(-102.13 -48.43)"/><path d="m195.57 681.41a11.49 11.49 0 0 1 1.46 2.92c12.49 14.68 19.15 28.38 7.14 28.73-11.19.32-24.61 20.32-27.83 25.37.11.39.24.78.38 1.15 0 0 15.74-26.16 28.54-26.52s4.4-15.92-9.69-31.65z" opacity=".1" transform="translate(-102.13 -48.43)"/><path d="m208.83 693.3c0 3.28-.37 5.94-.82 5.94s-.82-2.66-.82-5.94.46-1.74.91-1.74.73-1.56.73 1.74z" fill="#ffd037" transform="translate(-102.13 -48.43)"/><path d="m213.38 697.22c-2.88 1.57-5.39 2.52-5.61 2.12s1.94-2 4.83-3.57 1.74-.43 2 0 1.67-.12-1.22 1.45z" fill="#ffd037" transform="translate(-102.13 -48.43)"/><path d="m157.88 681.41s-7.13 9.33 3.29 23.41 19 26 15.55 34.76c0 0-15.73-26.16-28.54-26.52s-4.39-15.92 9.7-31.65z" fill="#6c63ff" transform="translate(-102.13 -48.43)"/><path d="m157.88 681.41a11.49 11.49 0 0 0 -1.46 2.92c-12.49 14.68-19.15 28.38-7.14 28.73 11.19.32 24.61 20.32 27.83 25.37a11.1 11.1 0 0 1 -.39 1.15s-15.72-26.16-28.54-26.52-4.39-15.92 9.7-31.65z" opacity=".1" transform="translate(-102.13 -48.43)"/><path d="m144.62 693.3c0 3.28.37 5.94.82 5.94s.82-2.66.82-5.94-.46-1.74-.91-1.74-.73-1.56-.73 1.74z" fill="#ffd037" transform="translate(-102.13 -48.43)"/><path d="m140.07 697.22c2.88 1.57 5.39 2.52 5.61 2.12s-1.94-2-4.83-3.57-1.74-.43-2 0-1.67-.12 1.22 1.45z" fill="#ffd037" transform="translate(-102.13 -48.43)"/><ellipse cx="74.6" cy="751.09" fill="#6c63ff" opacity=".1" rx="74.6" ry="11.45"/><path d="m215.12 727-.36 2.91-.5 4.12-.21 1.71-.5 4.12-.21 1.72-.5 4.11-5.71 46.8c-.51 4.18-7.34 7.43-15.57 7.43h-29.67c-8.24 0-15-3.25-15.56-7.43l-5.72-46.8-.5-4.11-.21-1.72-.51-4.12-.2-1.71-.5-4.12-.36-2.91c-.29-2.37 3.4-4.36 8.07-4.36h60.66c4.65.01 8.35 2 8.06 4.36z" fill="#65617d" transform="translate(-102.13 -48.43)"/><path d="m112.64 681.5-.5 4.11h-75.08l-.5-4.11z" fill="#9d9cb5"/><path d="m111.93 687.33-.5 4.12h-73.65l-.51-4.12z" fill="#9d9cb5"/><path d="m111.21 693.16-.5 4.11h-72.23l-.5-4.11z" fill="#9d9cb5"/></svg>